<svg width="1024" height="137" viewBox="0 0 1024 137" fill="none" xmlns="http://www.w3.org/2000/svg">
<g clip-path="url(#clip0_567_1499)">
<path fill-rule="evenodd" clip-rule="evenodd" d="M229.812 0.101669H227.602C215.97 0.0835571 206.53 9.50539 206.53 21.1377V68.1834C206.53 77.5781 198.766 85.1881 189.525 85.1881C184.035 85.1881 178.554 82.4249 175.302 77.7865L127.25 9.16114C123.264 3.46274 116.778 0.0654297 109.757 0.0654297C98.8034 0.0654297 88.9468 9.37856 88.9468 20.875V68.1925C88.9468 77.5872 81.2462 85.1971 71.9422 85.1971C66.434 85.1971 60.9621 82.434 57.7098 77.7955L3.94184 1.00762C2.72791 -0.722732 0.000976562 0.128845 0.000976562 2.24877V43.279C0.000976562 45.3536 0.635132 47.3649 1.82196 49.068L54.7292 124.633C57.8547 129.099 62.466 132.415 67.7839 133.62C81.0922 136.646 93.3406 126.4 93.3406 113.345V66.0545C93.3406 56.6598 100.951 49.0499 110.345 49.0499H110.373C116.035 49.0499 121.344 51.813 124.596 56.4514L172.647 125.068C176.642 130.775 182.794 134.164 190.132 134.164C201.33 134.164 210.923 124.841 210.923 113.354V66.0454C210.923 56.6508 218.533 49.0408 227.928 49.0408H229.803C230.981 49.0408 231.932 48.0896 231.932 46.9119V2.22159C231.932 1.04386 230.981 0.0926056 229.803 0.0926056L229.812 0.101669ZM505.663 35.506H493.904C492.708 35.506 491.739 36.4754 491.739 37.6712V131.98C491.739 133.176 492.708 134.146 493.904 134.146H505.663C506.859 134.146 507.828 133.176 507.828 131.98V37.6712C507.828 36.4754 506.859 35.506 505.663 35.506ZM493.514 0.0744934H506.044C507.239 0.0744934 508.209 1.04387 508.209 2.23972V17.6408C508.209 18.8366 507.239 19.806 506.044 19.806H493.514C492.318 19.806 491.349 18.8366 491.349 17.6408V2.23972C491.349 1.04387 492.318 0.0744934 493.514 0.0744934ZM576.047 32.8244C562.83 32.8244 553.254 37.4176 547.121 44.1306C545.155 46.1237 541.757 44.7285 541.757 41.9292V37.6712C541.757 36.4754 540.788 35.506 539.592 35.506H528.032C526.837 35.506 525.867 36.4754 525.867 37.6712V131.98C525.867 133.176 526.837 134.146 528.032 134.146H539.601C540.797 134.146 541.766 133.176 541.766 131.98V72.2783C541.766 51.5865 545.789 46.9934 567.822 46.9934C589.854 46.9934 593.487 50.6353 593.487 71.318V131.971C593.487 133.167 594.456 134.136 595.652 134.136H607.411C608.607 134.136 609.577 133.167 609.577 131.971V66.9061C609.577 43.3425 596.169 32.8063 576.057 32.8063V32.8244H576.047ZM696.176 45.4714C698.142 47.4645 701.539 46.0693 701.539 43.2699V2.24875C701.539 1.05291 702.509 0.0835571 703.704 0.0835571H715.273C716.469 0.0835571 717.439 1.05291 717.439 2.24875V131.989C717.439 133.185 716.469 134.155 715.273 134.155H703.704C702.509 134.155 701.539 133.185 701.539 131.989V126.391C701.657 123.528 698.187 122.151 696.176 124.189C690.623 131.083 679.896 136.827 665.528 136.827C640.252 136.827 623.773 118.826 623.773 85.3058C623.773 49.8743 642.155 32.8244 666.099 32.8244C680.467 32.8244 690.813 38.5771 696.176 45.4714ZM641.194 84.9163C641.194 117.286 645.217 122.078 671.462 122.078C697.517 122.078 701.539 117.286 701.539 84.9163C701.539 52.5469 697.707 47.5641 671.462 47.5641C645.217 47.5641 641.194 52.5469 641.194 84.9163ZM784.678 78.8011L765.726 75.5488C751.738 73.0574 749.247 68.8448 749.247 61.561C749.437 51.5956 753.269 46.6219 771.85 46.6219C789.253 46.6219 794.825 51.7677 796.021 62.8746C796.139 63.9708 797.063 64.8134 798.168 64.8134H809.664C810.896 64.8134 811.902 63.7806 811.829 62.5394C810.715 43.4693 793.258 32.8154 772.43 32.8154C749.057 32.8154 733.547 45.263 733.547 63.083C733.547 79.3628 746.194 86.4564 761.323 89.3282L782.205 93.1604C793.702 95.2712 797.534 99.1034 797.534 106.378C797.534 118.065 793.511 123.048 773.78 123.048C754.048 123.048 748.594 117.358 747.326 105.826C747.208 104.729 746.284 103.896 745.179 103.896H733.61C732.396 103.896 731.409 104.902 731.436 106.116C731.989 126.662 750.615 136.845 772.81 136.845C796.945 136.845 813.605 124.398 813.605 105.617C813.605 89.147 800.958 81.673 784.678 78.8011ZM868.405 122.667C889.858 122.667 893.88 118.074 893.88 97.382V37.6984C893.88 36.5026 894.849 35.5332 896.045 35.5332H907.804C909 35.5332 909.97 36.5026 909.97 37.6984V132.008C909.97 133.203 909 134.173 907.804 134.173H896.045C894.849 134.173 893.88 133.203 893.88 132.008V127.895C893.835 124.968 890.8 123.51 888.707 125.557C882.583 132.261 873.007 136.854 860.17 136.854C840.438 136.854 827.03 126.318 827.03 102.755V37.6893C827.03 36.4935 828 35.5241 829.196 35.5241H840.955C842.151 35.5241 843.12 36.4935 843.12 37.6893V98.3424C843.12 119.025 846.952 122.667 868.405 122.667ZM1004.06 35.506V22.859C1004.06 17.8854 1008.09 13.8539 1013.07 13.8539H1021.82C1023.01 13.8539 1023.98 12.8846 1023.98 11.6887V2.23065C1023.98 1.03481 1023.01 0.0654297 1021.82 0.0654297H1015.75C998.508 0.0654297 987.972 9.64128 987.972 26.1204V35.506H975.225C963.928 35.5241 955.059 37.0733 949.143 44.1306C946.969 46.1871 943.97 44.647 943.97 41.6574V37.6803C943.97 36.4844 943.001 35.5151 941.805 35.5151H930.046C928.85 35.5151 927.88 36.4844 927.88 37.6803V131.989C927.88 133.185 928.85 134.155 930.046 134.155H941.805C943.001 134.155 943.97 133.185 943.97 131.989V72.8672C943.97 53.3259 948.953 48.7328 970.405 48.7328H987.972V131.998C987.972 133.194 988.941 134.164 990.137 134.164H1001.9C1003.09 134.164 1004.06 133.194 1004.06 131.998V48.7328H1021.84C1023.03 48.7328 1024 47.7635 1024 46.5676V37.6893C1024 36.4935 1023.03 35.5241 1021.84 35.5241H1004.06V35.506ZM426.267 109.549C426.683 111.28 428.233 112.503 430.008 112.503H430.017C431.784 112.503 433.324 111.298 433.75 109.585L460.72 1.71427C460.964 0.744888 461.834 0.0654297 462.831 0.0654297H476.293C477.734 0.0654297 478.784 1.42437 478.422 2.81952L444.494 132.578C444.25 133.493 443.425 134.136 442.474 134.136H418.457C417.488 134.136 416.646 133.475 416.401 132.542L388.217 24.0005C387.782 22.3064 386.251 21.1196 384.494 21.1196H384.249C382.5 21.1196 380.969 22.3064 380.526 24.0005L352.351 132.542C352.106 133.484 351.263 134.136 350.294 134.136H326.277C325.326 134.136 324.493 133.493 324.257 132.578L290.33 2.81952C289.967 1.42437 291.018 0.0654297 292.459 0.0654297H305.921C306.917 0.0654297 307.787 0.744888 308.032 1.71427L334.993 109.585C335.418 111.298 336.95 112.503 338.725 112.503C340.501 112.503 342.05 111.28 342.467 109.549L368.386 1.73239C368.621 0.753967 369.491 0.0654297 370.497 0.0654297H398.246C399.251 0.0654297 400.121 0.753967 400.357 1.73239L426.267 109.549Z" fill="white"/>
</g>
<defs>
<clipPath id="clip0_567_1499">
<rect width="1024" height="137" fill="white"/>
</clipPath>
</defs>
</svg>
